<svg id="Capa_1" enable-background="new 0 0 511.986 511.986" height="512" viewBox="0 0 511.986 511.986" width="512" xmlns="http://www.w3.org/2000/svg"><g><path d="m509.606 458.984c-2.342-3.225-6.119-5.149-10.104-5.149h-11.045c1.912-3.74 2.997-7.968 2.997-12.448v-258.105c0-11.943-7.67-22.123-18.34-25.888l7.091-7.091c5.225-5.226 5.225-13.729 0-18.955l-120.66-120.658c-2.532-2.531-5.897-3.926-9.478-3.926s-6.947 1.395-9.478 3.926l-145.144 145.145h-147.473c-15.135 0-27.448 12.313-27.448 27.447v258.104c0 4.48 1.086 8.709 2.997 12.448h-11.037c-3.986 0-7.763 1.926-10.105 5.151-2.341 3.225-3.002 7.413-1.768 11.203l2.021 6.204c5.616 17.244 21.573 28.829 39.708 28.829h427.308c18.137 0 34.096-11.588 39.709-28.834l2.02-6.202c1.233-3.789.571-7.977-1.771-11.201zm-47.087-324.107-135.519 9.555 27.318-117.755zm-290.99 66.087 165.307-165.306-31.128 134.178zm-136.004 240.422v-258.104c0-6.863 5.584-12.447 12.448-12.447h132.472l-17.913 17.913h-107.578c-4.142 0-7.5 3.357-7.5 7.5v232.172c0 4.143 3.358 7.5 7.5 7.5h178.955c4.142 0 7.5-3.357 7.5-7.5s-3.358-7.5-7.5-7.5h-171.455v-217.172h85.078l-.97.97c-5.226 5.227-5.226 13.729 0 18.956l33.216 33.216c2.929 2.928 7.678 2.928 10.606 0 2.929-2.93 2.929-7.678 0-10.607l-27.837-27.837 117.756-27.318-9.554 135.519-36.343-36.343 12.68-12.681c2.929-2.93 2.929-7.678 0-10.607-2.929-2.928-7.678-2.928-10.606 0l-12.681 12.681-10.32-10.32c-2.929-2.928-7.678-2.928-10.606 0-2.929 2.93-2.929 7.678 0 10.607l10.32 10.319-51.166 51.167c-2.929 2.93-2.929 7.678 0 10.607 1.464 1.464 3.384 2.196 5.303 2.196s3.839-.732 5.303-2.196l51.167-51.167 42.293 42.292-38.137 38.138c-2.929 2.93-2.929 7.678 0 10.607 1.464 1.464 3.384 2.196 5.303 2.196s3.839-.732 5.303-2.196l104.592-104.592c2.929-2.93 2.929-7.678 0-10.607-2.929-2.928-7.678-2.928-10.606 0l-46.523 46.523 9.566-135.691 14.477-3.358c4.943-1.146 8.879-5.081 10.028-10.026l3.359-14.478 135.691-9.567-103.505 103.505c-2.929 2.93-2.929 7.678 0 10.607 1.464 1.464 3.384 2.196 5.303 2.196s3.839-.732 5.303-2.196l60.514-60.515h22.764v217.172h-182.955c-4.142 0-7.5 3.357-7.5 7.5s3.358 7.5 7.5 7.5h190.456c4.142 0 7.5-3.357 7.5-7.5v-232.172c0-4.143-3.358-7.5-7.5-7.5h-15.264l17.913-17.913h4.333c6.864 0 12.448 5.584 12.448 12.447v258.104c0 6.864-5.584 12.448-12.448 12.448h-416.036c-6.863 0-12.447-5.584-12.447-12.448zm-18.631 30.362-.949-2.914h183.693l5.762 17.517c.443 1.347.988 2.636 1.615 3.871h-89.856v-3.582c0-4.143-3.358-7.5-7.5-7.5s-7.5 3.357-7.5 7.5v3.582h-7.913v-3.582c0-4.143-3.358-7.5-7.5-7.5s-7.5 3.357-7.5 7.5v3.582h-7.913v-3.582c0-4.143-3.358-7.5-7.5-7.5s-7.5 3.357-7.5 7.5v3.582h-13.994c-11.621 0-21.847-7.424-25.445-18.474zm214.579 18.474c-5.389 0-10.141-3.439-11.825-8.559l-4.22-12.829h81.129l-4.22 12.829c-1.684 5.119-6.436 8.559-11.825 8.559zm263.62-18.478c-3.598 11.052-13.824 18.478-25.446 18.478h-164.675c.626-1.235 1.172-2.524 1.615-3.871l5.762-17.517h183.693z"/><path d="m412.366 382.221h14.941c4.142 0 7.5-3.357 7.5-7.5s-3.358-7.5-7.5-7.5h-14.941c-4.142 0-7.5 3.357-7.5 7.5s3.358 7.5 7.5 7.5z"/><path d="m360.532 404.511h66.775c4.142 0 7.5-3.357 7.5-7.5s-3.358-7.5-7.5-7.5h-66.775c-4.142 0-7.5 3.357-7.5 7.5s3.358 7.5 7.5 7.5z"/><path d="m210.927 335.249-45.406 45.406c-2.929 2.93-2.929 7.678 0 10.607 1.464 1.464 3.384 2.196 5.303 2.196s3.839-.732 5.303-2.196l45.406-45.406c2.929-2.93 2.929-7.678 0-10.607-2.928-2.927-7.677-2.927-10.606 0z"/><path d="m136.115 367.381-15.023 15.023c-2.929 2.93-2.929 7.678 0 10.607 1.464 1.464 3.384 2.196 5.303 2.196s3.839-.732 5.303-2.196l15.023-15.023c2.929-2.93 2.929-7.678 0-10.607-2.928-2.928-7.677-2.928-10.606 0z"/></g></svg>