<?xml version="1.0" ?><svg viewBox="0 0 512 512" xmlns="http://www.w3.org/2000/svg"><g id="Online_class_interactive"><path d="M256,354.84a16.7232,16.7232,0,1,0,16.7236,16.7237A16.7423,16.7423,0,0,0,256,354.84Zm0,23.4463a6.7232,6.7232,0,1,1,6.7236-6.7226A6.7309,6.7309,0,0,1,256,378.2866Z"/><path d="M327.9023,260.6763a4.5,4.5,0,0,0,4.5-4.5,5.67,5.67,0,0,1,5.5782-5.6494l4.415-.0547a5.4447,5.4447,0,0,1,4.041,1.6289,5.6085,5.6085,0,0,1,1.68,4.02v.1924a8.525,8.525,0,0,1-4.3154,7.4043l-4.1524,2.3506a13.1387,13.1387,0,0,0-6.6513,11.4121,4.5,4.5,0,0,0,9,0,4.1218,4.1218,0,0,1,2.0859-3.58l4.1524-2.3506a17.54,17.54,0,0,0,8.8808-15.2363v-.1924a14.5436,14.5436,0,0,0-4.3564-10.4238,14.6951,14.6951,0,0,0-10.4766-4.2246l-4.415.0547a14.7047,14.7047,0,0,0-14.4659,14.6494A4.5,4.5,0,0,0,327.9023,260.6763Z"/><path d="M337.2012,285.3706a4.5,4.5,0,0,0-4.5,4.5v1.4961a4.5,4.5,0,1,0,9,0v-1.4961A4.5,4.5,0,0,0,337.2012,285.3706Z"/><path d="M260.0283,59.0464h83.249a4.5,4.5,0,0,0,0-9h-83.249a4.5,4.5,0,0,0,0,9Z"/><path d="M260.0283,82.4575h45.584a4.5,4.5,0,0,0,0-9h-45.584a4.5,4.5,0,0,0,0,9Z"/><path d="M343.2773,73.4575h-18.375a4.5,4.5,0,0,0,0,9h18.375a4.5,4.5,0,0,0,0-9Z"/><path d="M496.86,337.5862V120.894a31.5579,31.5579,0,0,0-31.53-31.52H374.0713V28.3013a11.8506,11.8506,0,0,0-11.8379-11.8369h-116.74a11.8505,11.8505,0,0,0-11.8379,11.8369v49.665a1.8328,1.8328,0,0,1-.6592,1.41L221.03,89.374H188.76v-2.57a30.6853,30.6853,0,0,0-30.65-30.65H117.93a30.6853,30.6853,0,0,0-30.65,30.65v2.57H46.66a31.556,31.556,0,0,0-31.52,31.52v216.69c0,.0146-.0044.0285-.0044.0434s.0044.0288.0044.0435V378.874a31.5584,31.5584,0,0,0,31.52,31.53H218.19L207.906,485.5359H184.5416a5,5,0,1,0,0,10H329.38a5,5,0,0,0,0-10H306.0159l-10.2835-75.1318H465.33a31.56,31.56,0,0,0,31.53-31.53V337.6687c0-.0142.0042-.0271.0042-.0413S496.86,337.6,496.86,337.5862ZM222.8916,100.85l16.5166-13.8a11.8054,11.8054,0,0,0,4.2471-9.084V28.3013a1.8394,1.8394,0,0,1,1.8379-1.8369h116.74a1.8394,1.8394,0,0,1,1.8379,1.8369v75.9013a1.84,1.84,0,0,1-1.8379,1.8379H224.7744a2.9367,2.9367,0,0,1-1.8828-5.19Zm-39.1328,21.27A11.6187,11.6187,0,1,1,172.14,133.7388,11.6316,11.6316,0,0,1,183.7588,122.12ZM97.28,86.804a20.6686,20.6686,0,0,1,20.65-20.65h40.18a20.6753,20.6753,0,0,1,20.65,20.65V97.522l-59.4576-.3252h-.08a14.948,14.948,0,0,0-14.6856,12.5937l-.5166,3.3535a3.05,3.05,0,0,1-5.62,1.1192l-1.12-1.845Zm-7.64,32.3.2119.3486a12.9035,12.9035,0,0,0,11.086,6.2852,13.4429,13.4429,0,0,0,2.6142-.2588,12.9258,12.9258,0,0,0,10.3506-10.8115l.5166-3.3535a4.8873,4.8873,0,0,1,4.8018-4.1172h.0263l59.5123.3254V112.71A21.6841,21.6841,0,0,0,162.73,128.7388H157.917a5.001,5.001,0,0,0-.9536.0962,21.6181,21.6181,0,1,0,0,9.8076,5.0091,5.0091,0,0,0,.9536.0962H162.73a21.7009,21.7009,0,0,0,12.908,15.03A40.7294,40.7294,0,0,1,98.33,147.354a5.01,5.01,0,0,0-4.87-3.88c-.11,0-.22.01-.34.01l-.21.02c-.21.01-.42.03-.63.03a12.3573,12.3573,0,0,1-2.64-24.43Zm57.8907,14.6348A11.6187,11.6187,0,1,1,135.9131,122.12,11.6314,11.6314,0,0,1,147.5313,133.7388Zm33.0322,129.9306a5,5,0,0,0-5,5v63.958H105.0127V269.7749a5,5,0,0,0-10,0v62.8525H56.5938V239.478A31.0713,31.0713,0,0,1,87.63,208.4419h25.125a4.9507,4.9507,0,0,0,1.3413-.2051l25.5005,15.1016a14.99,14.99,0,0,0,22.6289-12.8975v-1.999h23.2676a31.0714,31.0714,0,0,1,31.0361,31.0361v93.1494H185.5635v-63.958A5,5,0,0,0,180.5635,263.6694ZM120.81,200.5916V185.9343a51.113,51.113,0,0,0,17.21,2.97,50.5776,50.5776,0,0,0,14.21-2.0367V203.396c0,.0156-.0046.03-.0046.0459v6.999a4.99,4.99,0,0,1-7.5332,4.294ZM25.14,120.894a21.5393,21.5393,0,0,1,21.52-21.52H87.28v10a22.4073,22.4073,0,0,0-17.36,21.8c0,.553.0373,1.0969.0769,1.64H25.14Zm0,21.92H73.1958A22.38,22.38,0,0,0,89.61,153.374a50.4042,50.4042,0,0,0,21.2,27.6927v17.3752H87.63A41.0831,41.0831,0,0,0,46.5938,239.478v93.1494H25.14ZM295.9219,485.5356H218l10.283-75.1315h57.3559ZM486.86,332.6274H437.377a5,5,0,0,0,0,10H486.86V378.874a21.55,21.55,0,0,1-21.53,21.53H290.0142l-.0132-.0013h-66.08l-.0132.0013H46.66a21.548,21.548,0,0,1-21.52-21.53V342.6274H414.9912a5,5,0,0,0,0-10H226.5293V239.478a41.0832,41.0832,0,0,0-41.0361-41.0361H162.23V182.7358a50.9945,50.9945,0,0,0,23.5576-27.477,21.6613,21.6613,0,0,0,17.5848-12.4448H368.74v81.3017H280.7334a16.1284,16.1284,0,0,0-16.1094,16.11v57.7558a16.1284,16.1284,0,0,0,16.1094,16.11H390.0791a16.1293,16.1293,0,0,0,16.11-16.11V261.3843a6.1425,6.1425,0,0,1,1.8808-4.4112l2.846-2.729H486.86ZM422.71,188.1541a13.08,13.08,0,0,1,11.18-21.82,13.2192,13.2192,0,0,1,11.5,11.73,12.8922,12.8922,0,0,1-3.41,10.13,17.0808,17.0808,0,0,0-4.5,13.2,15.9132,15.9132,0,0,0,6.52,11.46,20.5076,20.5076,0,0,0,4.28,2.41,16.7875,16.7875,0,0,1,9.92,15.51v14.47H420.3018l2.3232-2.228a10.9776,10.9776,0,0,0-7.5977-18.9h-6.8488a15.9606,15.9606,0,0,1,8.5717-8.8117,21.3448,21.3448,0,0,0,2.3-1.13,16.1829,16.1829,0,0,0,8.05-11.64A17.2263,17.2263,0,0,0,422.71,188.1541Zm-7.6829,45.9616a.9776.9776,0,0,1,.6758,1.6836l-14.5547,13.957a16.1928,16.1928,0,0,0-4.9589,11.628v36.5976a6.1175,6.1175,0,0,1-6.11,6.11H280.7334a6.1166,6.1166,0,0,1-6.1094-6.11V240.2261a6.1166,6.1166,0,0,1,6.1094-6.11ZM486.86,245.2441H468.2v-14.47a27.3558,27.3558,0,0,0-4.38-14.95,25.7372,25.7372,0,0,0-11.7-9.79,10.602,10.602,0,0,1-2.22-1.25,6.0219,6.0219,0,0,1-2.46-4.35,7.0488,7.0488,0,0,1,1.88-5.45,23.0819,23.0819,0,1,0-33.98-.07,7.2847,7.2847,0,0,1,1.89,6.06,6.19,6.19,0,0,1-3.11,4.5,10.7941,10.7941,0,0,1-1.18.58,25.9207,25.9207,0,0,0-15.2571,18.0617H377.74V142.814H486.86Zm0-112.43H205.3535A21.6558,21.6558,0,0,0,188.76,112.71V99.374h23.6064a12.9688,12.9688,0,0,0,12.4077,16.6665h137.459a11.8514,11.8514,0,0,0,11.8379-11.8379V99.374H465.33a21.5414,21.5414,0,0,1,21.53,21.52Z"/></g></svg>