<?xml version="1.0" ?><svg viewBox="0 0 512 512" xmlns="http://www.w3.org/2000/svg"><g id="E-learning_course_searching"><path d="M491.991,485.981l-41.0155-51.462a93.4224,93.4224,0,0,0-59.6138-165.3833q-2.3946,0-4.7606.12V113.8613a5.0018,5.0018,0,0,0-5-5h-133.67v-85.66a5.0018,5.0018,0,0,0-5-5h-149.9A10.3771,10.3771,0,0,0,82.7321,8.979H60.7047a10.3688,10.3688,0,0,0-10.344,9.9463,40.2428,40.2428,0,0,0-32.64,39.4658v205.79a2.89,2.89,0,0,0,.021.6962,30.015,30.015,0,0,0,30.0251,29.3457H156.401v59.9092l.0183-.0156c-.0056.2417-.0183.4814-.0183.7246a30.01,30.01,0,0,0,30.04,30.04H300.5936a93.4316,93.4316,0,0,0,132.7458,61.2006l42.2317,52.9795a10.4964,10.4964,0,1,0,16.42-13.08ZM60.34,19.3442a.366.366,0,0,1,.3652-.3652H82.7321a.366.366,0,0,1,.3652.3652V59.1157l-2.4922-3.3174a10.6266,10.6266,0,0,0-16.7871-.2656L60.34,59.87ZM27.7211,58.3911A30.2524,30.2524,0,0,1,50.34,29.17V64.1831A8.3887,8.3887,0,0,0,56.01,72.188a8.64,8.64,0,0,0,2.8633.4941,8.3838,8.3838,0,0,0,6.5683-3.1914L71.62,61.7886a.5306.5306,0,0,1,.498-.2354.6.6,0,0,1,.4912.251L77.83,68.7534a8.4842,8.4842,0,0,0,15.2676-5.0957V28.2012H237.9311v205.937H47.7672a29.9189,29.9189,0,0,0-20.0619,7.7036l.0158-.0308Zm-9.81,202.46.0039-.0073-.0048.038Zm15.6844,17.5078a20.0009,20.0009,0,0,1-4.7122-7.5059H158.4723a5,5,0,0,0,0-10H28.0249a20.0586,20.0586,0,0,1,19.7423-16.7148H221.7643a30.0831,30.0831,0,0,0,.0166,40.0849H47.7672A19.9365,19.9365,0,0,1,33.5954,278.3589Zm209.3359,15.8642a5.0289,5.0289,0,0,0,5-5.0341V264.18a5,5,0,0,0-10,0v19.0464a20.0391,20.0391,0,0,1,5.24-39.06,4.9442,4.9442,0,0,0,3.2378-1.437l.0017.0015.01-.0118a5.057,5.057,0,0,0,.5672-.6728c.0212-.0293.0464-.0552.0668-.0855a5.0581,5.0581,0,0,0,.3868-.6972c.0278-.0591.0642-.1133.09-.1734a5.0206,5.0206,0,0,0,.2227-.7026c.0218-.083.0561-.1606.0735-.2456a5.0464,5.0464,0,0,0,.1013-.9834l.0018-.0176v-.001l0-.0019,0-.002V202.9609h43.78a10.4451,10.4451,0,0,0,10.43-10.44v-45.31a10.4454,10.4454,0,0,0-10.43-10.44h-12.99a5,5,0,0,0,0,10h12.99a.4354.4354,0,0,1,.43.44v45.31a.4351.4351,0,0,1-.43.44h-43.78v-46.19h11.75a5,5,0,0,0,0-10h-11.75v-17.91h128.67V270.3057a93.7448,93.7448,0,0,0-70.7033,54.4853H186.4411a29.91,29.91,0,0,0-20.04,7.6856V294.2231Zm55.6055,57.5083a4.943,4.943,0,0,0-1.3926-.2211H166.7013a20.0628,20.0628,0,0,1,19.74-16.7193H302.1247A92.7559,92.7559,0,0,0,298.5368,351.7314ZM186.4411,374.8809A19.9633,19.9633,0,0,1,167.5568,361.51H297.1442a4.9658,4.9658,0,0,0,.7723-.0777c-.0047.3877-.0147.7744-.0147,1.1631a93.9221,93.9221,0,0,0,.8081,12.2852Zm121.4607-12.2852a83.46,83.46,0,1,1,83.46,83.46A83.5548,83.5548,0,0,1,307.9018,362.5957Z"/><path d="M322.23,202.9575h21.5723a10.4456,10.4456,0,0,0,10.4336-10.4336V147.2065a10.4457,10.4457,0,0,0-10.4336-10.4336H322.23a10.4457,10.4457,0,0,0-10.4336,10.4336v45.3174A10.4456,10.4456,0,0,0,322.23,202.9575Zm-.4336-55.751a.4339.4339,0,0,1,.4336-.4336h21.5723a.4339.4339,0,0,1,.4336.4336v45.3174a.4339.4339,0,0,1-.4336.4336H322.23a.4339.4339,0,0,1-.4336-.4336Z"/><path d="M60.7731,159.5649h92.2656a10.4456,10.4456,0,0,0,10.4336-10.4336V103.814a10.4459,10.4459,0,0,0-10.4336-10.4346h-12.99a5,5,0,0,0,0,10h12.99a.4347.4347,0,0,1,.4336.4346v45.3173a.4338.4338,0,0,1-.4336.4336H60.7731a.4338.4338,0,0,1-.4336-.4336V103.814a.4347.4347,0,0,1,.4336-.4346h60.2353a5,5,0,0,0,0-10H60.7731A10.4459,10.4459,0,0,0,50.34,103.814v45.3173A10.4456,10.4456,0,0,0,60.7731,159.5649Z"/><path d="M183.5582,159.5649h21.5723a10.4456,10.4456,0,0,0,10.4336-10.4336V103.814a10.4459,10.4459,0,0,0-10.4336-10.4346H183.5582a10.446,10.446,0,0,0-10.4345,10.4346v45.3173A10.4457,10.4457,0,0,0,183.5582,159.5649Zm-.4345-55.7509a.4355.4355,0,0,1,.4345-.4346h21.5723a.4347.4347,0,0,1,.4336.4346v45.3173a.4338.4338,0,0,1-.4336.4336H183.5582a.4347.4347,0,0,1-.4345-.4336Z"/><path d="M453.2479,385.3213a65.9255,65.9255,0,1,0-66.3681,43.041c.1162.0078.2314.0117.3462.0117a5,5,0,0,0,.3364-9.9883,55.9129,55.9129,0,1,1,56.2949-36.5039,5,5,0,0,0,9.3906,3.44Z"/><path d="M432.7763,400.1826a56.6,56.6,0,0,1-6.7281,6.2735,56.0248,56.0248,0,0,1-13.8686,8.0556,5,5,0,1,0,3.7265,9.2793,66.4245,66.4245,0,0,0,24.2657-16.8779,5,5,0,0,0-7.3955-6.7305Z"/><path d="M396.9535,366.9912a10.4737,10.4737,0,0,1-6.4448,2.19,10.5891,10.5891,0,0,1-10.5767-10.5772v-9.6411a31.3337,31.3337,0,0,1,8.5742-1.77c10.8487-.6758,21.8409,4.7471,32.6807,16.0488a5,5,0,1,0,7.2168-6.9219c-12.9643-13.5175-26.5947-19.95-40.498-19.1093-21.0171,1.2646-34.4361,18.82-34.9971,19.5673a5,5,0,1,0,7.9951,6.0059,46.53,46.53,0,0,1,9.0283-8.4893v4.31a20.6,20.6,0,0,0,20.5767,20.5772,20.3877,20.3877,0,0,0,12.5449-4.2657,5,5,0,0,0-6.1-7.9238Z"/></g></svg>