<?xml version="1.0" ?><svg viewBox="0 0 512 512" xmlns="http://www.w3.org/2000/svg"><g id="Online_class_community"><path d="M465.335,32.917H46.6641A31.5643,31.5643,0,0,0,15.1357,64.4463V362.4209A31.5643,31.5643,0,0,0,46.6641,393.95H218.19L207.906,469.083H184.5723a5,5,0,1,0,0,10H329.4482a5,5,0,0,0,0-10H306.0159L295.7322,393.95H465.335a31.5645,31.5645,0,0,0,31.5293-31.5293V64.4463A31.5644,31.5644,0,0,0,465.335,32.917ZM376.9971,135.73a17.92,17.92,0,1,1,26.3847.0547,19.4446,19.4446,0,0,0-5.1328,15.0439,18.0441,18.0441,0,0,0,7.3877,12.9961,24.1581,24.1581,0,0,0,4.9541,2.7949c7.9805,3.3243,13.3428,11.6778,13.3428,20.7871v5.211H356.9551v-5.41c0-9.0283,5.3252-17.2871,13.2519-20.55a23.8885,23.8885,0,0,0,2.6709-1.3008,18.3919,18.3919,0,0,0,9.1387-13.22A19.6374,19.6374,0,0,0,376.9971,135.73Zm37.0547,22.581h-.001a15.1383,15.1383,0,0,1-3.1035-1.7529,9.1534,9.1534,0,0,1-3.74-6.5967,10.4329,10.4329,0,0,1,2.78-8.0634,26.9206,26.9206,0,1,0-39.6191-.0821,10.6886,10.6886,0,0,1,2.7588,8.919,9.3219,9.3219,0,0,1-4.6846,6.791,15.1041,15.1041,0,0,1-1.6621.81,30.8757,30.8757,0,0,0-18.8252,28.872v5.4114H324.6406V179.7607a4.5,4.5,0,0,0-4.5-4.5H297.15V159.2886a8.9068,8.9068,0,0,0-8.9-8.9H260.5V88.625H486.8643V192.6184H432.9336v-5.2122A31.19,31.19,0,0,0,414.0518,158.3105Zm-157.61,86.376H220.4443V184.2607h95.1963v60.4258H283.5684a4.4952,4.4952,0,0,0-2.9815,1.13l-19.6455,17.3779V249.1865A4.5,4.5,0,0,0,256.4414,244.6865Zm-94.6582,71.9883v-5.26A31.1869,31.1869,0,0,0,142.9023,282.32a15.1735,15.1735,0,0,1-3.1044-1.7549,9.15,9.15,0,0,1-3.74-6.5957,10.431,10.431,0,0,1,2.7793-8.0635,26.9206,26.9206,0,1,0-39.6191-.082,10.69,10.69,0,0,1,2.7588,8.918A9.3141,9.3141,0,0,1,97.3,281.53a15.0089,15.0089,0,0,1-1.6689.8125,30.8761,30.8761,0,0,0-18.8252,28.873v5.459h-51.67V201.6184H186.45v16.6a8.9068,8.9068,0,0,0,8.9,8.9h16.0942v22.0681a4.5,4.5,0,0,0,4.5,4.5H251.5v62.9883Zm-55.9365-56.9365a17.92,17.92,0,1,1,26.3847.0547A19.4389,19.4389,0,0,0,127.1,274.8369a18.0388,18.0388,0,0,0,7.3867,12.9942,24.1408,24.1408,0,0,0,4.9532,2.7959l.0019.0009c7.98,3.3233,13.3418,11.6768,13.3418,20.7871v5.21H85.8057v-5.4092c0-9.0293,5.3252-17.2881,13.249-20.55a24.0712,24.0712,0,0,0,2.6748-1.3008,18.3934,18.3934,0,0,0,9.1367-13.2207A19.6345,19.6345,0,0,0,105.8467,259.7383ZM288.15,175.2607H215.9443a4.5,4.5,0,0,0-4.5,4.5v38.3577H195.45v-58.73h92.7Zm-92.8-24.8723a8.9069,8.9069,0,0,0-8.9,8.9v33.33h-24.667v-5.2122a31.19,31.19,0,0,0-18.8818-29.0957H142.9a15.1075,15.1075,0,0,1-3.1025-1.7529,9.1533,9.1533,0,0,1-3.74-6.5957,10.433,10.433,0,0,1,2.7793-8.0644,26.9206,26.9206,0,1,0-39.6191-.0821,10.6886,10.6886,0,0,1,2.7588,8.919,9.3182,9.3182,0,0,1-4.6817,6.79,15.0341,15.0341,0,0,1-1.664.8106,30.8757,30.8757,0,0,0-18.8252,28.872v5.4114h-51.67V88.625H251.5v61.7634ZM105.8467,135.73a17.92,17.92,0,1,1,26.3847.0547A19.44,19.44,0,0,0,127.1,150.8291a18.0386,18.0386,0,0,0,7.3867,12.9941,24.1021,24.1021,0,0,0,4.9541,2.7959c7.98,3.3243,13.3428,11.6778,13.3428,20.7871v5.211H85.8057v-5.41c0-9.0293,5.3252-17.2871,13.2539-20.5508a24.2842,24.2842,0,0,0,2.67-1.3,18.3925,18.3925,0,0,0,9.1367-13.22A19.6367,19.6367,0,0,0,105.8467,135.73ZM46.6641,42.917H465.335a21.5539,21.5539,0,0,1,21.5293,21.5293V78.625H25.1357V64.4463A21.5532,21.5532,0,0,1,46.6641,42.917ZM295.9219,469.083H218L228.2832,393.95h57.3555ZM465.335,383.95H46.6641a21.5532,21.5532,0,0,1-21.5284-21.5293V325.6748H255.9639c.0124,0,.0239.0037.0363.0037s.024-.0037.0364-.0037H426.7021a4.4559,4.4559,0,0,0,.4942-.05h1.2373a4.5,4.5,0,0,0,4.5-4.5v-9.71A31.1869,31.1869,0,0,0,414.0527,282.32a15.178,15.178,0,0,1-3.1054-1.7549,9.1534,9.1534,0,0,1-3.74-6.5966,10.431,10.431,0,0,1,2.78-8.0626,26.9206,26.9206,0,1,0-39.6191-.082,10.69,10.69,0,0,1,2.7588,8.918,9.322,9.322,0,0,1-4.6807,6.79,14.9533,14.9533,0,0,1-1.666.8106,30.8771,30.8771,0,0,0-18.8252,28.873v5.459H260.5V275.6l24.7732-21.9131h34.8672a4.5,4.5,0,0,0,4.5-4.5V201.6184H486.8643V316.6748H449.0879a4.5,4.5,0,0,0,0,9h37.7764v36.7461A21.5539,21.5539,0,0,1,465.335,383.95ZM376.9971,259.7383a17.92,17.92,0,1,1,26.3847.0547,19.439,19.439,0,0,0-5.1328,15.042,18.0442,18.0442,0,0,0,7.3877,12.997,24.1657,24.1657,0,0,0,4.9531,2.795l.002.0009c7.98,3.3233,13.3418,11.6768,13.3418,20.7871v5.21H356.9551v-5.4092c0-9.0293,5.3252-17.2881,13.247-20.5488a24.04,24.04,0,0,0,2.6768-1.3018,18.3947,18.3947,0,0,0,9.1377-13.2207A19.6352,19.6352,0,0,0,376.9971,259.7383Z"/><path d="M256,338.3867A16.7237,16.7237,0,1,0,272.7236,355.11,16.7423,16.7423,0,0,0,256,338.3867Zm0,23.4473a6.7237,6.7237,0,1,1,6.7236-6.7236A6.7317,6.7317,0,0,1,256,361.834Z"/><path d="M237.26,210.6709H298.415a4.5,4.5,0,0,0,0-9H237.26a4.5,4.5,0,0,0,0,9Z"/><path d="M273.0371,225.915a4.5,4.5,0,0,0-4.5-4.5H237.26a4.5,4.5,0,0,0,0,9h31.2773A4.5,4.5,0,0,0,273.0371,225.915Z"/><path d="M298.415,221.415H284.6221a4.5,4.5,0,0,0,0,9H298.415a4.5,4.5,0,0,0,0-9Z"/><path d="M399.2969,130.749a3.5,3.5,0,0,0-4.4043-5.4414,6.5857,6.5857,0,0,1-8.7881.0918,3.5,3.5,0,0,0-4.6445,5.2373,14.1905,14.1905,0,0,0,9.0839,3.4072A13.7064,13.7064,0,0,0,399.2969,130.749Z"/><path d="M128.1475,130.749a3.5,3.5,0,0,0-4.4043-5.4414,6.5924,6.5924,0,0,1-8.7891.0918,3.5,3.5,0,0,0-4.6445,5.2373,14.1927,14.1927,0,0,0,9.084,3.4072A13.7088,13.7088,0,0,0,128.1475,130.749Z"/><path d="M399.2969,254.7578a3.5,3.5,0,0,0-4.4043-5.4414,6.5869,6.5869,0,0,1-8.7881.0918,3.5,3.5,0,0,0-4.6445,5.2373,14.1905,14.1905,0,0,0,9.0839,3.4072A13.7064,13.7064,0,0,0,399.2969,254.7578Z"/><path d="M128.1475,254.7578a3.5,3.5,0,0,0-4.4043-5.4414,6.5905,6.5905,0,0,1-8.7891.0918,3.5,3.5,0,0,0-4.6445,5.2373,14.1927,14.1927,0,0,0,9.084,3.4072A13.7088,13.7088,0,0,0,128.1475,254.7578Z"/></g></svg>