<?xml version="1.0" ?><svg viewBox="0 0 512 512" xmlns="http://www.w3.org/2000/svg"><g id="E-learning_on_computer"><path d="M256.0043,359.5865A16.7234,16.7234,0,1,0,272.7279,376.31,16.7422,16.7422,0,0,0,256.0043,359.5865Zm0,23.4468a6.7234,6.7234,0,1,1,6.7236-6.7237A6.7312,6.7312,0,0,1,256.0043,383.0333Z"/><path d="M465.335,94.1207h-35.8v-25.69a19.4824,19.4824,0,0,0-16.95-19.27c-2.84-.37-6.1-.75-9.72-1.12v-1.76a13.294,13.294,0,0,0-11.1-13.16,249.0943,249.0943,0,0,0-44.1167-3.46V24.0093a12.3038,12.3038,0,0,0-12.29-12.29H312.7015a33.4,33.4,0,0,0-33.3628,33.3628v1.7263l-.0037.0023a72.9281,72.9281,0,0,0-17.86,15.98,9.8046,9.8046,0,0,1-7.69,3.74,9.6728,9.6728,0,0,1-4.25-.98,9.8253,9.8253,0,0,1-3.44-2.76c-14.54-18.22-38-29.06-69.73-32.21-24.99-2.48-48.67.52-60.56,2.54a13.294,13.294,0,0,0-11.1,13.16v1.76c-3.62.37-6.88.75-9.72,1.12a19.4824,19.4824,0,0,0-16.95,19.27v25.69H46.665a31.5645,31.5645,0,0,0-31.53,31.52v257.98a31.5731,31.5731,0,0,0,31.53,31.53h171.53l-10.28,75.13h-24.39a5,5,0,1,0,0,10h146.88a5,5,0,0,0,0-10h-24.39l-10.28-75.13h169.6a31.5667,31.5667,0,0,0,31.53-31.53v-257.98A31.5581,31.5581,0,0,0,465.335,94.1207Zm-350.63-47.84a3.3233,3.3233,0,0,1,2.77-3.3c20.67-3.5,90.47-11.96,120.8,26.05a19.7856,19.7856,0,0,0,10.51,6.86v144.2a5,5,0,1,0,10,0V75.8807a19.7979,19.7979,0,0,0,10.51-6.85,61.2673,61.2673,0,0,1,10.04-9.94l.0037-.0028V93.7545a9.65,9.65,0,0,0,6.9,9.2924,9.7983,9.7983,0,0,0,2.84.4224,9.6447,9.6447,0,0,0,8.0507-4.3408l6.2037-9.3325,6.2041,9.3325a9.7072,9.7072,0,0,0,17.791-5.374V69.4293a5,5,0,0,0-10,0l0,23.3545-9.8306-14.7876a5,5,0,0,0-8.3281,0l-9.8311,14.788V45.0821c0-.0761.0051-.151.0058-.2269.0045-.4856.0267-.9677.0608-1.4468.0124-.1732.0235-.3466.04-.5187.0538-.5681.1239-1.1316.2218-1.6865a23.3965,23.3965,0,0,1,23.0348-19.4839h22.6568a2.2926,2.2926,0,0,1,2.29,2.29v6.0512l-.0033,0q-3.195.195-6.44.52c-1.31.13-2.6.27-3.88.44q-5.16.6149-10,1.53v10.21l.0041-.0007v9.0052a5,5,0,0,0,10,0V41.1c25.9487-3.3691,51.5665-.0194,62.7659,1.8805a3.3232,3.3232,0,0,1,2.77,3.3v175.64a3.3176,3.3176,0,0,1-1.08,2.46,3.397,3.397,0,0,1-2.59.87c-74.14-6.61-112.67,16.26-129.03,30.48a10.0655,10.0655,0,0,1-1.38,1v-18.36a5,5,0,0,0-10,0v18.36a10.0655,10.0655,0,0,1-1.38-1c-14.37-12.49-45.83-31.65-103.5-31.65-8,0-16.5.37-25.53,1.17a3.3485,3.3485,0,0,1-3.67-3.33Zm-26.67,22.15a9.4631,9.4631,0,0,1,8.24-9.35c2.49-.32,5.32-.66,8.43-.98v163.82a13.3453,13.3453,0,0,0,14.56,13.29c70.46-6.28,106.42,14.89,121.58,28.07a19.81,19.81,0,0,0,25.88,0c15.16-13.18,51.12-34.36,121.58-28.07a13.3453,13.3453,0,0,0,14.56-13.29V58.1008c3.11.32,5.94.66,8.43.98a9.4631,9.4631,0,0,1,8.24,9.35v171.69a9.4254,9.4254,0,0,1-10.02,9.4c-74.32-4.84-116.41,13.82-138.64,30.33a28.5,28.5,0,0,1-34.18,0c-19.79-14.7-55.34-31.11-115.35-31.11q-11.085,0-23.29.78a9.4254,9.4254,0,0,1-10.02-9.4Zm-62.9,57.21a21.5481,21.5481,0,0,1,21.53-21.52h31.37v33.44h-52.9Zm270.79,364.64h-77.92l10.28-75.13h57.36Zm190.94-152.91h-49.48a5,5,0,0,0,0,10h49.48v36.25a21.55,21.55,0,0,1-21.53,21.53H46.665a21.5566,21.5566,0,0,1-21.53-21.53v-36.25h389.86a5,5,0,0,0,0-10H25.135v-189.81h52.9v92.56a19.419,19.419,0,0,0,20.67,19.38c71.28-4.64,111.15,12.87,132.03,28.38a38.47,38.47,0,0,0,46.1,0c20.88-15.51,60.75-33.02,132.03-28.38a19.4188,19.4188,0,0,0,20.67-19.38v-92.56h57.33Zm0-199.81h-57.33v-33.44h35.8a21.5416,21.5416,0,0,1,21.53,21.52Z"/><path d="M291.2767,142.1739a4.9993,4.9993,0,0,0,3.1626-1.124c.9336-.7588,23.3492-18.4649,65.4107-7.4073a5,5,0,1,0,2.542-9.6718c-47.313-12.437-73.2373,8.4707-74.3179,9.3667a4.9961,4.9961,0,0,0,3.2026,8.8364Z"/><path d="M291.2767,171.9747a4.9988,4.9988,0,0,0,3.1626-1.1241c.9336-.7583,23.3492-18.4643,65.4107-7.4072a5,5,0,0,0,2.542-9.6719c-47.313-12.436-73.2373,8.4712-74.3179,9.3667a4.9962,4.9962,0,0,0,3.2026,8.8365Z"/><path d="M291.2767,201.7755a4.9988,4.9988,0,0,0,3.1626-1.1241c.9336-.7583,23.3492-18.4638,65.4107-7.4072a5,5,0,0,0,2.542-9.6719c-47.313-12.437-73.2373,8.4707-74.3179,9.3667a4.9962,4.9962,0,0,0,3.2026,8.8365Z"/><path d="M140.4989,130.0777a5.0015,5.0015,0,0,0,6.1069,3.5649c42.0054-11.0415,64.417,6.6006,65.4068,7.4043a5,5,0,0,0,6.3691-7.7094c-1.08-.8955-27.0029-21.8023-74.3179-9.3667A5,5,0,0,0,140.4989,130.0777Z"/><path d="M144.0638,153.7715a5,5,0,0,0,2.542,9.6719c42.0054-11.0415,64.417,6.6006,65.4068,7.4043a5,5,0,0,0,6.3691-7.7095C217.3016,162.2432,191.3788,141.3355,144.0638,153.7715Z"/><path d="M144.0638,183.5723a5,5,0,0,0,2.542,9.6719c42.0054-11.042,64.417,6.6006,65.4068,7.4043a5,5,0,0,0,6.3691-7.71C217.3016,192.0435,191.3788,171.1378,144.0638,183.5723Z"/></g></svg>