<?xml version="1.0" ?><svg viewBox="0 0 512 512" xmlns="http://www.w3.org/2000/svg"><g data-name="E-learning_student_ Satisfied" id="E-learning_student__Satisfied"><path d="M241.6573,310.4844V263.1191a12.41,12.41,0,0,0-12.3955-12.3964H211.5811a5,5,0,0,0,0,10h17.6807a2.3985,2.3985,0,0,1,2.3955,2.3964v47.3653a2.3985,2.3985,0,0,1-2.3955,2.3965H103.6788a2.3994,2.3994,0,0,1-2.3965-2.3965V263.1191a2.3994,2.3994,0,0,1,2.3965-2.3964h81.9863a5,5,0,1,0,0-10H103.6788a12.41,12.41,0,0,0-12.3965,12.3964v47.3653a12.4105,12.4105,0,0,0,12.3965,12.3965h125.583A12.41,12.41,0,0,0,241.6573,310.4844Z"/><path d="M302.126,250.7227H268.84a10.4456,10.4456,0,0,0-10.4336,10.4335v51.2911A10.4457,10.4457,0,0,0,268.84,322.8809H302.126a10.4459,10.4459,0,0,0,10.4346-10.4336V261.1562A10.4458,10.4458,0,0,0,302.126,250.7227Zm.4346,61.7246a.4347.4347,0,0,1-.4346.4336H268.84a.4339.4339,0,0,1-.4336-.4336V261.1562a.4338.4338,0,0,1,.4336-.4335H302.126a.4347.4347,0,0,1,.4346.4335Z"/><path d="M306.2247,370.0371H214.336a5,5,0,0,0,0,10h91.8887a5,5,0,0,0,0-10Z"/><path d="M306.2247,345.0508H214.336a5,5,0,0,0,0,10h91.8887a5,5,0,0,0,0-10Z"/><path d="M385.209,107.72H370.9815V93.7969a17.8027,17.8027,0,0,0-10.8477-16.4053l-1.3515-.5742A12.1467,12.1467,0,0,0,341.88,87.9932v9.6132A27.9541,27.9541,0,0,1,332.168,118.8l-3.8379,3.3086a11.4553,11.4553,0,0,1-7.4775,2.7783H302.7832a5,5,0,0,0,0,10h18.0694a21.4635,21.4635,0,0,0,14.0068-5.2041l3.8379-3.3086A37.9446,37.9446,0,0,0,351.88,97.6064V87.9932a2.1458,2.1458,0,0,1,2.9873-1.9737l1.3516.5743a7.816,7.816,0,0,1,4.7627,7.2031V112.72a5,5,0,0,0,5,5H385.209a5.0352,5.0352,0,1,1,0,10.07H365.3047a5,5,0,0,0,0,10h21.6758a3.2672,3.2672,0,0,1,3.2637,3.2637v3.3086a3.2672,3.2672,0,0,1-3.2637,3.2637H365.3047a5,5,0,0,0-5,5c0,.0119.0034.0232.0034.0351s-.0034.0232-.0034.0352a5,5,0,0,0,5,5h21.6758a3.2672,3.2672,0,0,1,3.2637,3.2637v3.3086a3.2671,3.2671,0,0,1-3.2637,3.2636H365.3047a5,5,0,0,0-5,5c0,.012.0034.0232.0034.0352s-.0034.0232-.0034.0351a5,5,0,0,0,5,5h21.6758a3.2672,3.2672,0,0,1,3.2637,3.2637v3.3086a3.2672,3.2672,0,0,1-3.2637,3.2637h-12.873a61.064,61.064,0,0,1-15.9893-2.1309L330.3936,177.78a21.4337,21.4337,0,0,0-5.6221-.75H302.7832a5,5,0,0,0,0,10h21.9883a11.4558,11.4558,0,0,1,3.001.4l27.7266,7.5273a71.0381,71.0381,0,0,0,18.6084,2.4805h12.873a13.2789,13.2789,0,0,0,13.2637-13.2637v-3.3086a13.1936,13.1936,0,0,0-2.9329-8.2988,13.1936,13.1936,0,0,0,2.9329-8.2988V160.96a13.1937,13.1937,0,0,0-2.9329-8.2989,13.1936,13.1936,0,0,0,2.9329-8.2988v-3.3086a13.1951,13.1951,0,0,0-3.3814-8.8158A15.0228,15.0228,0,0,0,385.209,107.72Z"/><path d="M464.6729,65.4844a8.4162,8.4162,0,0,0-8.125-5.9033h-9.7207l-3.0039-9.2452V50.335a8.5426,8.5426,0,0,0-16.249.0009l-2.0183,6.21a107.2429,107.2429,0,0,0-38.71-22.204,8.5488,8.5488,0,0,0-7.063-13.3594h-9.72L367.06,11.7373a8.5428,8.5428,0,0,0-16.249,0l-3.0049,9.2451H338.085a8.4141,8.4141,0,0,0-8.124,5.9024,8.52,8.52,0,0,0-.0742,5.1015,106.9849,106.9849,0,0,0-44.8794,22.4449l-1.3306-4.0953a8.5424,8.5424,0,0,0-16.249,0l-3.0049,9.2452h-9.7207a8.5431,8.5431,0,0,0-5.0215,15.4541l7.8643,5.7138-3.0039,9.2442a8.4625,8.4625,0,0,0,.1789,5.789,106.6862,106.6862,0,0,0-8.0437,38.304H145.87v-.2551a12.3162,12.3162,0,0,0-12.3028-12.3028H103.585a12.3161,12.3161,0,0,0-12.3027,12.3028v.9487a52.9675,52.9675,0,0,0-44.3875,52.1965V466.9551c0,.042-.0032.083-.0032.125a39.0683,39.0683,0,0,0,39.085,39.0849h265.64a5.04,5.04,0,0,0,5-5.0468V467.08a5,5,0,0,0-10,0v28.3108a29.0843,29.0843,0,0,1,5.24-57.3557,5.0027,5.0027,0,0,0,4.3086-2.9864c.0185-.0412.0447-.0781.0622-.12a5.0633,5.0633,0,0,0,.2173-.7c.0208-.0813.0547-.157.0716-.24a5.0435,5.0435,0,0,0,.1-.9939V244.0337A107.4155,107.4155,0,0,0,454.5677,98.725a8.3862,8.3862,0,0,0,2.14-8.7318l-3.003-9.2442,7.8633-5.7138A8.4152,8.4152,0,0,0,464.6729,65.4844ZM348.1387,29.9824a8.52,8.52,0,0,0,8.124-5.9033l2.6719-8.2217,2.6709,8.2207a8.5222,8.5222,0,0,0,8.125,5.9043h8.6445l-6.9921,5.0811a8.52,8.52,0,0,0-3.1036,9.5517l2.6709,8.2227-6.9931-5.0811a8.5154,8.5154,0,0,0-10.043-.0009l-6.9951,5.081,2.6719-8.2226a8.5224,8.5224,0,0,0-3.1036-9.5508l-6.9931-5.0811ZM256.1094,68.5811h8.6455a8.52,8.52,0,0,0,8.124-5.9034l2.6729-8.2216,2.6709,8.2207a8.5223,8.5223,0,0,0,8.125,5.9043h8.6455l-6.9941,5.082a8.5207,8.5207,0,0,0-3.1035,9.5508l2.6718,8.2226-6.9951-5.082a8.5215,8.5215,0,0,0-10.043,0l-6.9931,5.082,2.6719-8.2236a8.5229,8.5229,0,0,0-3.1036-9.55Zm-154.8271,65.25a2.3056,2.3056,0,0,1,2.3027-2.3028h29.9824a2.3056,2.3056,0,0,1,2.3028,2.3028l-.001,59.5429-6.6406-8.84a12.6575,12.6575,0,0,0-19.9971-.3174l-7.9492,9.9121ZM314.211,467.08a38.8781,38.8781,0,0,0,11.44,27.6387l.0029.0029q.7442.7442,1.5225,1.4433h-241.2a29.0825,29.0825,0,0,1-28.1685-21.8086H236.6573a5,5,0,0,0,0-10H57.0235a29.1224,29.1224,0,0,1,28.9531-26.3613H327.1524A39,39,0,0,0,314.211,467.08ZM85.9766,427.9951a38.9932,38.9932,0,0,0-29.0818,13.0061V186.9763a42.9624,42.9624,0,0,1,34.3875-42.04v49.9258a9.6335,9.6335,0,0,0,6.5127,9.1914,9.91,9.91,0,0,0,3.2871.5674,9.6291,9.6291,0,0,0,7.5429-3.6641l8.4082-10.4843a2.551,2.551,0,0,1,2.1163-.9952,2.6108,2.6108,0,0,1,2.083,1.0616l7.1054,9.458a9.7421,9.7421,0,0,0,17.5323-5.8506v-50.06H246.8975a107.5831,107.5831,0,0,0,99.7188,99.7173V427.9951ZM354.065,234.0662a97.4156,97.4156,0,0,1-90.7327-132.9124,8.54,8.54,0,0,0,4.3552-1.6089l7.8633-5.7138,7.8643,5.7138a8.4165,8.4165,0,0,0,10.043,0,8.4166,8.4166,0,0,0,3.1035-9.5517l-3.0039-9.2442,7.8632-5.7138A8.5424,8.5424,0,0,0,296.4,59.5811H294.524a96.9751,96.9751,0,0,1,44.08-19.12l2.3243,1.6885-3.0049,9.2451a8.4159,8.4159,0,0,0,3.1045,9.5518,8.4155,8.4155,0,0,0,10.041-.001l7.8652-5.7129,7.8633,5.7129a8.5426,8.5426,0,0,0,13.1465-9.5508l-3.0039-9.2451.2068-.15A96.8606,96.8606,0,0,1,413.6907,59.67a8.5345,8.5345,0,0,0-3.8625,15.3649l7.8642,5.7138L414.69,89.9922a8.5431,8.5431,0,0,0,13.1455,9.5527l7.8643-5.7138,7.8632,5.7138a8.8584,8.8584,0,0,0,.7789.4791A97.4243,97.4243,0,0,1,354.065,234.0662ZM448.1465,73.6631a8.521,8.521,0,0,0-3.1035,9.5508l2.6709,8.2226-6.9941-5.082a8.5215,8.5215,0,0,0-10.043,0l-6.9932,5.082,2.6719-8.2236a8.5229,8.5229,0,0,0-3.1035-9.55l-6.9951-5.082h8.6455a8.52,8.52,0,0,0,8.124-5.9034l2.6719-8.2236,2.6719,8.2227a8.5222,8.5222,0,0,0,8.125,5.9043h8.6455Z"/></g></svg>